<?xml version="1.0" encoding="UTF-8" standalone="no"?>
<!-- Created with Inkscape (http://www.inkscape.org/) -->

<svg
   width="538.95905mm"
   height="122.66344mm"
   viewBox="0 0 538.95905 122.66344"
   version="1.1"
   id="svg19415"
   inkscape:version="1.1.1 (3bf5ae0d25, 2021-09-20)"
   sodipodi:docname="grid-house-car.svg"
   xmlns:inkscape="http://www.inkscape.org/namespaces/inkscape"
   xmlns:sodipodi="http://sodipodi.sourceforge.net/DTD/sodipodi-0.dtd"
   xmlns="http://www.w3.org/2000/svg"
   xmlns:svg="http://www.w3.org/2000/svg">
  <sodipodi:namedview
     id="namedview19417"
     pagecolor="#ffffff"
     bordercolor="#666666"
     borderopacity="1.0"
     inkscape:pageshadow="2"
     inkscape:pageopacity="0.0"
     inkscape:pagecheckerboard="0"
     inkscape:document-units="mm"
     showgrid="true"
     inkscape:zoom="0.77771465"
     inkscape:cx="826.78139"
     inkscape:cy="531.68601"
     inkscape:window-width="3840"
     inkscape:window-height="2066"
     inkscape:window-x="-11"
     inkscape:window-y="-11"
     inkscape:window-maximized="1"
     inkscape:current-layer="layer1">
    <inkscape:grid
       type="xygrid"
       id="grid20106"
       originx="183.80534"
       originy="21.050076" />
  </sodipodi:namedview>
  <defs
     id="defs19412" />
  <g
     inkscape:label="Laag 1"
     inkscape:groupmode="layer"
     id="layer1"
     transform="translate(183.80534,21.050075)">
    <g
       id="g7566"
       transform="matrix(0.26458333,0,0,0.26458333,-2.3156303e-6,1.2801683e-6)">
      <path
         d="m 9.562,348.567 47.014,9.64 v -92.364 l 68.133,10.509 v 94.134 l 54.588,12.354 239.855,-29.491 1.475,-128.51 31.211,-1.32 -9.639,-14.2 -95.074,-140.321 -252.227,1.588 0.287,0.669 H 94.831 L 0,224.255 H 9.562 Z M 420.74,215.266 171.033,225.852 109.375,80.253 343.104,79.63 434.299,214.692 Z m -76.49,80.708 -95.625,8.77 v -56.581 l 95.625,-5.575 z"
         id="path7560" />
      <path
         d="m 180.367,215.505 230.821,-9.125 -36.053,-53.911 -219.104,5.001 z m 20.78,-34.893 -24.671,0.889 -6.197,-14.784 24.298,-0.564 z m -14.526,25.063 -6.187,-14.755 24.996,-0.899 6.636,14.592 z m 35.754,-1.492 -6.607,-14.525 25.713,-0.928 6.064,14.401 z m 35.363,-1.482 -6.035,-14.344 28.439,-1.023 6.445,14.162 z m 39.149,-1.635 -6.416,-14.105 25.502,-0.918 6.35,13.961 z m 35.744,-1.492 -6.32,-13.904 24.174,-0.87 6.262,13.77 z m 34.426,-1.444 -6.236,-13.713 21.432,-0.775 8.922,13.474 z m 0.955,-35.974 8.043,12.144 -19.518,0.708 -5.66,-12.46 z m -27.53,0.641 5.729,12.594 -24.176,0.87 -5.861,-12.9 z m -34.712,0.794 5.93,13.034 -25.504,0.918 -6.07,-13.359 z m -36.051,0.831 6.139,13.493 -28.123,1.014 -5.832,-13.866 z m -38.098,0.88 5.893,14 -26.03,0.937 -6.512,-14.325 z"
         id="path7562" />
      <path
         d="m 127.286,90.38 24.375,58.13 40.038,-0.889 0.02,0.048 0.104,-0.048 178.615,-3.741 -35.072,-53.5 z m 162.276,9.562 6.1,12.632 -30.445,0.421 -5.939,-13.053 z m -40.794,0 6.006,13.206 -28,0.392 -5.717,-13.598 z m -38.088,0 5.775,13.741 -29.51,0.411 -6.426,-14.152 z m -40.659,0 6.503,14.296 -28.688,0.402 -6.178,-14.698 z m -12.059,38.862 -6.149,-14.659 29.022,-0.402 6.55,14.411 z m 39.828,-0.879 -6.512,-14.334 29.186,-0.402 5.937,14.105 z m 38.882,-0.861 -5.9,-14.019 28.324,-0.392 6.262,13.78 z m 39.092,-0.86 -6.227,-13.693 30.717,-0.43 6.482,13.435 z m 41.48,-0.919 -6.443,-13.349 32.502,-0.449 8.043,13.053 z m -11.033,-22.854 -6.035,-12.489 h 29.846 l 7.43,12.058 z"
         id="path7564" />
    </g>
    <g
       id="g7568"
       transform="matrix(0.26458333,0,0,0.26458333,-2.3156303e-6,1.2801683e-6)" />
    <g
       id="g7570"
       transform="matrix(0.26458333,0,0,0.26458333,-2.3156303e-6,1.2801683e-6)" />
    <g
       id="g7572"
       transform="matrix(0.26458333,0,0,0.26458333,-2.3156303e-6,1.2801683e-6)" />
    <g
       id="g7574"
       transform="matrix(0.26458333,0,0,0.26458333,-2.3156303e-6,1.2801683e-6)" />
    <g
       id="g7576"
       transform="matrix(0.26458333,0,0,0.26458333,-2.3156303e-6,1.2801683e-6)" />
    <g
       id="g7578"
       transform="matrix(0.26458333,0,0,0.26458333,-2.3156303e-6,1.2801683e-6)" />
    <g
       id="g7580"
       transform="matrix(0.26458333,0,0,0.26458333,-2.3156303e-6,1.2801683e-6)" />
    <g
       id="g7582"
       transform="matrix(0.26458333,0,0,0.26458333,-2.3156303e-6,1.2801683e-6)" />
    <g
       id="g7584"
       transform="matrix(0.26458333,0,0,0.26458333,-2.3156303e-6,1.2801683e-6)" />
    <g
       id="g7586"
       transform="matrix(0.26458333,0,0,0.26458333,-2.3156303e-6,1.2801683e-6)" />
    <g
       id="g7588"
       transform="matrix(0.26458333,0,0,0.26458333,-2.3156303e-6,1.2801683e-6)" />
    <g
       id="g7590"
       transform="matrix(0.26458333,0,0,0.26458333,-2.3156303e-6,1.2801683e-6)" />
    <g
       id="g7592"
       transform="matrix(0.26458333,0,0,0.26458333,-2.3156303e-6,1.2801683e-6)" />
    <g
       id="g7594"
       transform="matrix(0.26458333,0,0,0.26458333,-2.3156303e-6,1.2801683e-6)" />
    <g
       id="g7596"
       transform="matrix(0.26458333,0,0,0.26458333,-2.3156303e-6,1.2801683e-6)" />
    <path
       d="m -109.85053,21.01947 c 1.0959,0 1.98438,-0.888206 1.98438,-1.984375 v -8.466667 c 0,-0.07355 -0.005,-0.14605 -0.0124,-0.217487 0,-0.0098 -0.003,-0.01958 -0.004,-0.02937 -0.0103,-0.08281 -0.0265,-0.163777 -0.0466,-0.243152 -0.004,-0.01614 -0.008,-0.03201 -0.0122,-0.04789 -0.0246,-0.087841 -0.0545,-0.1735662 -0.0905,-0.2558516 -0.003,-0.00794 -0.008,-0.015346 -0.0111,-0.023019 -0.0349,-0.076994 -0.0746,-0.1508125 -0.11853,-0.2219854 -0.008,-0.013494 -0.0159,-0.027252 -0.0246,-0.040481 -0.0484,-0.074348 -0.1016,-0.1452563 -0.15928,-0.2121958 -0.0117,-0.013758 -0.0243,-0.026723 -0.0365,-0.040217 -0.0595,-0.065617 -0.12223,-0.1277938 -0.18997,-0.1849438 -0.003,-0.00265 -0.005,-0.00529 -0.008,-0.00767 l -0.007,-0.00582 c 0,0 -0.003,-0.00265 -0.003,-0.00265 l -25.21267,-21.0105624 -6.2111,-8.281458 c -0.37491,-0.499798 -0.96282,-0.79375 -1.5875,-0.79375 h -8.46666 c -0.62469,0 -1.21259,0.293952 -1.5875,0.79375 l -6.21083,8.281193 -25.21268,21.0105628 c 0,0 -0.003,0 -0.003,0.00265 l -0.007,0.00582 c -0.003,0.00265 -0.005,0.00529 -0.008,0.00767 -0.0677,0.05715 -0.13044,0.1195916 -0.18997,0.1849437 -0.0122,0.013494 -0.0246,0.026458 -0.0365,0.040217 -0.0577,0.066939 -0.11086,0.1378479 -0.15928,0.2121958 -0.009,0.013229 -0.0164,0.026987 -0.0246,0.040481 -0.0439,0.071173 -0.0839,0.1449917 -0.11853,0.2219855 -0.003,0.00767 -0.008,0.015081 -0.0111,0.023019 -0.036,0.08255 -0.0656,0.1680104 -0.0905,0.2558522 -0.005,0.01588 -0.008,0.03175 -0.0122,0.04789 -0.0201,0.07937 -0.0363,0.160338 -0.0466,0.243153 -0.003,0.0098 -0.003,0.01958 -0.005,0.02937 -0.008,0.0717 -0.0127,0.144198 -0.0127,0.217752 v 8.466667 c 0,1.096169 0.88847,1.984375 1.98438,1.984375 1.0959,0 1.98437,-0.888206 1.98437,-1.984375 v -6.482292 h 21.43125 v 18.25281 l -24.67689,20.563946 c 0,0 -0.003,0 -0.003,0.0026 l -0.007,0.0058 c -0.003,0.0026 -0.005,0.0053 -0.008,0.0077 -0.0677,0.05715 -0.13044,0.119592 -0.18998,0.184944 -0.0122,0.01349 -0.0246,0.02646 -0.0365,0.04022 -0.0577,0.06694 -0.11086,0.137848 -0.15928,0.212195 -0.009,0.01323 -0.0164,0.02699 -0.0246,0.04048 -0.0439,0.07117 -0.0839,0.144991 -0.11854,0.221985 -0.003,0.0077 -0.008,0.01508 -0.0111,0.02302 -0.036,0.08255 -0.0656,0.16801 -0.0905,0.255852 -0.004,0.01588 -0.008,0.03175 -0.0122,0.04789 -0.0201,0.07937 -0.0363,0.160338 -0.0466,0.243153 0,0.0098 -0.003,0.01958 -0.005,0.02937 -0.008,0.0717 -0.0124,0.144198 -0.0124,0.217752 v 8.466667 c 0,1.096169 0.88847,1.984375 1.98438,1.984375 1.0959,0 1.98437,-0.888206 1.98437,-1.984375 v -6.482292 h 20.58247 l -15.49003,42.597917 h -2.84189 c -1.09591,0 -1.98438,0.888206 -1.98438,1.984374 0,1.096172 0.88847,1.984382 1.98438,1.984382 h 10.58333 c 1.09591,0 1.98438,-0.88821 1.98438,-1.984382 0,-1.096168 -0.88847,-1.984374 -1.98438,-1.984374 h -2.16244 l 23.32911,-28.513352 23.3291,28.513352 h -0.0458 c -1.0959,0 -1.98437,0.888206 -1.98437,1.984374 0,1.096172 0.88847,1.984382 1.98437,1.984382 h 10.58333 c 1.09591,0 1.98438,-0.88821 1.98438,-1.984382 0,-1.096168 -0.88847,-1.984374 -1.98438,-1.984374 h -4.96014 l -15.49003,-42.597917 h 20.58247 v 6.482292 c 0,1.096169 0.88847,1.984375 1.98437,1.984375 1.0959,0 1.98438,-0.888206 1.98438,-1.984375 v -8.466667 c 0,-0.07355 -0.005,-0.14605 -0.0124,-0.217487 0,-0.0098 -0.003,-0.01958 -0.004,-0.02937 -0.0103,-0.08281 -0.0265,-0.163777 -0.0466,-0.243152 -0.004,-0.01614 -0.008,-0.03202 -0.0122,-0.04789 -0.0246,-0.08784 -0.0545,-0.173566 -0.0905,-0.255852 -0.003,-0.0079 -0.008,-0.01534 -0.0111,-0.02302 -0.0349,-0.07699 -0.0746,-0.150813 -0.11853,-0.221986 -0.008,-0.01349 -0.0159,-0.02725 -0.0246,-0.04048 -0.0484,-0.07435 -0.1016,-0.145256 -0.15928,-0.212196 -0.0117,-0.01376 -0.0243,-0.02672 -0.0365,-0.04022 -0.0595,-0.06562 -0.12223,-0.127794 -0.18997,-0.184944 -0.003,-0.0026 -0.005,-0.0053 -0.008,-0.0077 l -0.007,-0.0058 c 0,0 -0.003,-0.0026 -0.003,-0.0026 l -24.67689,-20.56421 v -18.25281 h 21.43125 v 6.482292 c 0,1.096169 0.88847,1.984375 1.98437,1.984375 z M -148.6403,-0.01490482 -154.43282,5.777618 V -5.8074277 Z m -2.98609,-8.59895818 h 11.58505 l -5.79252,5.7925228 z m 0,17.1979164 5.79253,-5.7925228 5.79252,5.7925228 z m 11.58505,3.9687496 -5.79252,5.792523 -5.79253,-5.792523 z m -8.59896,8.598959 -5.79252,5.792522 V 15.359239 Z m -2.98609,8.598957 5.79253,-5.792522 5.79252,5.792522 z m 11.58505,3.96875 -5.79252,5.792523 -5.79253,-5.792523 z m -8.59896,8.598958 -5.79252,5.792523 V 36.525905 Z m 2.80644,2.806436 5.79252,5.792523 h -11.58505 z m 6.39577,9.761273 -6.39577,7.817114 -6.39578,-7.817114 z m -3.58934,-12.567709 5.79253,-5.792522 V 48.11095 Z m 0,-21.166665 5.79253,-5.792523 v 11.585045 z m 0,-21.16666682 5.79253,-5.79252288 V 5.777618 Z M -149.07501,-17.08053 h 6.48229 l 3.37344,4.497917 h -13.22917 z m -9.32656,10.7190648 V 8.5840534 h -17.93478 z m 0,42.3333322 v 14.945519 h -17.93478 z m -9.09717,53.210618 11.75438,-32.324674 7.34642,8.979164 z m 24.22869,-23.34551 7.34642,-8.979164 11.75438,32.324674 z m 10.0039,-14.919589 V 35.971867 l 17.93478,14.945519 z m 0,-42.3333326 V -6.3614652 l 17.93478,14.9455186 z"
       id="path7728"
       style="stroke-width:0.264583" />
    <g
       id="g7730"
       transform="matrix(0.26458333,0,0,0.26458333,-210.47604,-3.5718737)" />
    <g
       id="g7732"
       transform="matrix(0.26458333,0,0,0.26458333,-210.47604,-3.5718737)" />
    <g
       id="g7734"
       transform="matrix(0.26458333,0,0,0.26458333,-210.47604,-3.5718737)" />
    <g
       id="g7736"
       transform="matrix(0.26458333,0,0,0.26458333,-210.47604,-3.5718737)" />
    <g
       id="g7738"
       transform="matrix(0.26458333,0,0,0.26458333,-210.47604,-3.5718737)" />
    <g
       id="g7740"
       transform="matrix(0.26458333,0,0,0.26458333,-210.47604,-3.5718737)" />
    <g
       id="g7742"
       transform="matrix(0.26458333,0,0,0.26458333,-210.47604,-3.5718737)" />
    <g
       id="g7744"
       transform="matrix(0.26458333,0,0,0.26458333,-210.47604,-3.5718737)" />
    <g
       id="g7746"
       transform="matrix(0.26458333,0,0,0.26458333,-210.47604,-3.5718737)" />
    <g
       id="g7748"
       transform="matrix(0.26458333,0,0,0.26458333,-210.47604,-3.5718737)" />
    <g
       id="g7750"
       transform="matrix(0.26458333,0,0,0.26458333,-210.47604,-3.5718737)" />
    <g
       id="g7752"
       transform="matrix(0.26458333,0,0,0.26458333,-210.47604,-3.5718737)" />
    <g
       id="g7754"
       transform="matrix(0.26458333,0,0,0.26458333,-210.47604,-3.5718737)" />
    <g
       id="g7756"
       transform="matrix(0.26458333,0,0,0.26458333,-210.47604,-3.5718737)" />
    <g
       id="g7758"
       transform="matrix(0.26458333,0,0,0.26458333,-210.47604,-3.5718737)" />
    <g
       id="g15578"
       transform="matrix(0.26458333,0,0,0.26458333,224.81256,8.1104064)">
      <g
         id="g15576">
        <path
           d="m 63.301,171.498 c -3.212,1.655 -23.558,11.531 -25.818,12.976 -1.709,1.1 -2.906,1.595 -3.874,1.993 -5.947,2.499 -5.947,2.499 -25.026,42.104 -17.544,36.426 -4.144,59.677 4.524,69.719 0.181,-1.739 0.449,-3.446 0.786,-5.125 0.345,-1.72 0.777,-3.406 1.28,-5.069 7.007,-23.487 28.788,-40.678 54.519,-40.678 31.386,0 56.916,25.529 56.916,56.915 0,1.712 -0.112,3.395 -0.26,5.066 -0.116,1.322 -0.315,2.608 -0.519,3.895 -0.21,1.318 -0.447,2.629 -0.744,3.92 47.785,0.389 157.906,1.326 235.222,2.252 -0.36,-1.295 -0.729,-2.598 -0.989,-3.939 -0.261,-1.278 -0.438,-2.605 -0.605,-3.932 -0.309,-2.384 -0.521,-4.801 -0.521,-7.27 0,-31.386 25.527,-56.915 56.913,-56.915 31.387,0 56.918,25.529 56.918,56.915 0,3.021 -0.309,5.963 -0.762,8.869 -0.213,1.342 -0.445,2.668 -0.75,3.979 -0.316,1.351 -0.621,2.693 -1.037,3.988 9.577,-0.497 15.765,-2.385 19.336,-8.088 3.826,-6.127 3.818,-15.332 3.818,-32.047 V 279.6 c 0.006,-36.191 -13.394,-46.632 -18.768,-49.365 l -3.943,-11.445 h -2.797 c -7.566,0 -20.27,-3.228 -33.723,-6.645 -16.606,-4.224 -35.43,-8.997 -50.293,-9.199 -10.856,-0.15 -31.438,-10.81 -53.227,-22.099 -28.549,-14.792 -60.909,-31.551 -84.204,-31.551 h -89.62 c -15.513,0 -23.253,1.878 -30.735,3.691 -5.47,1.318 -53.72,17.919 -62.017,18.511"
           id="path15570"
           sodipodi:nodetypes="cccccccssccccccsssccccscccscccsscc" />
        <path
           d="m 69.699,353.397 c 22.658,0 41.678,-15.377 47.312,-36.251 0.347,-1.291 0.661,-2.593 0.906,-3.92 0.234,-1.286 0.457,-2.568 0.593,-3.887 0.167,-1.647 0.255,-3.318 0.255,-5.006 0,-27.102 -21.965,-49.066 -49.065,-49.066 -24.181,0 -44.22,17.504 -48.271,40.52 -0.276,1.547 -0.471,3.121 -0.599,4.708 -0.099,1.271 -0.194,2.545 -0.194,3.839 0,0.137 0.014,0.261 0.022,0.394 0.202,26.912 22.075,48.669 49.041,48.669 z"
           id="path15572" />
        <path
           d="m 368.493,319.583 c 6.408,19.624 24.846,33.814 46.618,33.814 21.119,0 39.076,-13.369 45.989,-32.083 0.478,-1.287 0.906,-2.59 1.274,-3.924 0.353,-1.29 0.674,-2.585 0.926,-3.911 0.553,-2.966 0.882,-6.02 0.882,-9.146 0,-27.102 -21.961,-49.066 -49.063,-49.066 -27.102,0 -49.066,21.965 -49.066,49.066 0,2.514 0.257,4.962 0.617,7.374 0.204,1.326 0.437,2.637 0.741,3.936 0.308,1.326 0.653,2.645 1.082,3.94 z"
           id="path15574" />
      </g>
    </g>
    <g
       id="g15580"
       transform="matrix(0.26458333,0,0,0.26458333,241.21673,8.639573)" />
    <g
       id="g15582"
       transform="matrix(0.26458333,0,0,0.26458333,241.21673,8.639573)" />
    <g
       id="g15584"
       transform="matrix(0.26458333,0,0,0.26458333,241.21673,8.639573)" />
    <g
       id="g15586"
       transform="matrix(0.26458333,0,0,0.26458333,241.21673,8.639573)" />
    <g
       id="g15588"
       transform="matrix(0.26458333,0,0,0.26458333,241.21673,8.639573)" />
    <g
       id="g15590"
       transform="matrix(0.26458333,0,0,0.26458333,241.21673,8.639573)" />
    <g
       id="g15592"
       transform="matrix(0.26458333,0,0,0.26458333,241.21673,8.639573)" />
    <g
       id="g15594"
       transform="matrix(0.26458333,0,0,0.26458333,241.21673,8.639573)" />
    <g
       id="g15596"
       transform="matrix(0.26458333,0,0,0.26458333,241.21673,8.639573)" />
    <g
       id="g15598"
       transform="matrix(0.26458333,0,0,0.26458333,241.21673,8.639573)" />
    <g
       id="g15600"
       transform="matrix(0.26458333,0,0,0.26458333,241.21673,8.639573)" />
    <g
       id="g15602"
       transform="matrix(0.26458333,0,0,0.26458333,241.21673,8.639573)" />
    <g
       id="g15604"
       transform="matrix(0.26458333,0,0,0.26458333,241.21673,8.639573)" />
    <g
       id="g15606"
       transform="matrix(0.26458333,0,0,0.26458333,241.21673,8.639573)" />
    <g
       id="g15608"
       transform="matrix(0.26458333,0,0,0.26458333,241.21673,8.639573)" />
  </g>
</svg>
